<?xml version="1.0" encoding="UTF-8"?>
<svg id="Layer_1" data-name="Layer 1" xmlns="http://www.w3.org/2000/svg" viewBox="0 0 1188.75 246.25">
  <defs>
    <style>
      .cls-1 {
        fill: #f15922;
      }

      .cls-1, .cls-2, .cls-3 {
        stroke-width: 0px;
      }

      .cls-3 {
        fill: #3f5fac;
      }
    </style>
  </defs>
  <g>
    <path class="cls-3" d="m196.54,80.36c-6.01-3.47-13.69-6.7-23.04-9.71-9.35-3-15.88-5.92-19.59-8.74-3.72-2.81-5.58-5.96-5.58-9.42,0-3.97,1.69-7.23,5.06-9.8,3.38-2.57,7.97-3.86,13.79-3.86s10.32,1.52,13.7,4.56c3.38,3.03,5.06,7.3,5.06,12.82h32.51c0-8.24-2.13-15.56-6.4-21.97-4.28-6.41-10.27-11.35-17.98-14.82-7.71-3.47-16.42-5.21-26.14-5.21s-18.95,1.6-26.94,4.79c-7.99,3.19-14.17,7.65-18.53,13.37-4.37,5.73-6.54,12.34-6.54,19.83,0,15.05,8.76,26.87,26.28,35.49,5.39,2.66,12.33,5.42,20.81,8.26,8.48,2.85,14.4,5.61,17.79,8.27,3.37,2.66,5.06,6.38,5.06,11.14,0,4.21-1.57,7.48-4.69,9.8-3.13,2.32-7.39,3.49-12.77,3.49-8.42,0-14.51-1.72-18.25-5.16-3.75-3.44-5.62-8.78-5.62-16.02h-32.7c0,8.91,2.24,16.8,6.73,23.63,4.48,6.85,11.18,12.23,20.06,16.16,8.89,3.94,18.81,5.9,29.77,5.9,3.25,0,6.35-.15,9.32-.44l37.77-52.59c-3.4-7.87-9.71-14.46-18.94-19.78Z"/>
    <path class="cls-1" d="m314.02,124.49c-4.37-7.03-10.53-12.45-18.48-16.26-7.95-3.8-17.11-5.71-27.44-5.71h-15.96l-38.01,52.94v82.3h32.6v-45.89h20.8c16.47,0,29.43-3.95,38.88-11.84,9.44-7.9,14.16-18.44,14.16-31.63,0-8.92-2.18-16.89-6.54-23.92Zm-31.48,37.47c-3.32,3.16-8.13,4.74-14.44,4.74h-21.37v-39.01h21.74c5.88.06,10.52,1.99,13.93,5.76,3.41,3.78,5.11,8.83,5.11,15.14,0,5.76-1.66,10.22-4.97,13.37Z"/>
  </g>
  <g>
    <path class="cls-1" d="m354.83,239.05v-5.57c3.54-.66,6.41-1.4,8.6-2.23,2.18-.82,4.39-2.1,6.62-3.83,2.89-2.23,5.09-4.89,6.62-7.98,1.52-3.09,2.29-6.16,2.29-9.21,0-5.03-1.03-11.79-3.09-20.28-1.98-8.33-2.97-15.42-2.97-21.27,0-9.4,3.71-17.93,11.13-25.6,3.71-3.87,7.58-6.84,11.63-8.9,4.04-2.06,9.93-4.08,17.68-6.06v-.5c-8.66-2.64-14.9-4.97-18.74-6.99-3.83-2.02-7.52-4.93-11.07-8.72-3.38-3.46-6.06-7.42-8.04-11.87-1.98-4.45-2.97-8.82-2.97-13.11s1.03-10.8,3.09-19.29c2.06-8.49,3.09-15.5,3.09-21.02,0-4.21-.93-8.06-2.78-11.56-1.86-3.5-4.39-6.25-7.61-8.22-2.8-1.73-7.3-3.34-13.48-4.82v-5.57l4.33-.25c8.41.08,16.18,1.94,23.31,5.57,7.13,3.63,12.8,8.51,17,14.66,4.21,6.14,6.31,12.68,6.31,19.6,0,5.69-1.28,13.28-3.83,22.76-1.82,6.68-2.72,13.11-2.72,19.29,0,14.76,8,23.46,23.99,26.1v7.3c-5.77,1.07-10.51,2.84-14.22,5.32-2.97,2.39-5.34,5.57-7.11,9.52-1.77,3.96-2.66,8.04-2.66,12.24,0,5.77.82,11.96,2.47,18.55,2.56,9.98,3.83,17.32,3.83,22.01,0,6.35-1.94,12.51-5.81,18.49-3.88,5.98-9.03,10.86-15.46,14.66-4.45,2.31-8.84,3.96-13.17,4.95s-9.75,1.61-16.26,1.86Z"/>
    <path class="cls-3" d="m77.57,16.18v5.57c-3.54.66-6.41,1.4-8.6,2.23-2.18.82-4.39,2.1-6.62,3.83-2.89,2.23-5.09,4.89-6.62,7.98-1.52,3.09-2.29,6.16-2.29,9.21,0,5.03,1.03,11.79,3.09,20.28,1.98,8.33,2.97,15.42,2.97,21.27,0,9.4-3.71,17.93-11.13,25.6-3.71,3.87-7.58,6.84-11.63,8.9-4.04,2.06-9.93,4.08-17.68,6.06v.5c8.66,2.64,14.9,4.97,18.74,6.99,3.83,2.02,7.52,4.93,11.07,8.72,3.38,3.46,6.06,7.42,8.04,11.87,1.98,4.45,2.97,8.82,2.97,13.11s-1.03,10.8-3.09,19.29c-2.06,8.49-3.09,15.5-3.09,21.02,0,4.21.93,8.06,2.78,11.56,1.86,3.5,4.39,6.25,7.61,8.22,2.8,1.73,7.3,3.34,13.48,4.82v5.57l-4.33.25c-8.41-.08-16.18-1.94-23.31-5.57-7.13-3.63-12.8-8.51-17-14.66-4.21-6.14-6.31-12.68-6.31-19.6,0-5.69,1.28-13.28,3.83-22.76,1.82-6.68,2.72-13.11,2.72-19.29,0-14.76-8-23.46-23.99-26.1v-7.3c5.77-1.07,10.51-2.84,14.22-5.32,2.97-2.39,5.34-5.57,7.11-9.52,1.77-3.96,2.66-8.04,2.66-12.24,0-5.77-.82-11.96-2.47-18.55-2.56-9.98-3.83-17.32-3.83-22.01,0-6.35,1.94-12.51,5.81-18.49,3.88-5.98,9.03-10.86,15.46-14.66,4.45-2.31,8.84-3.96,13.17-4.95,4.33-.99,9.75-1.61,16.26-1.86Z"/>
  </g>
  <g>
    <path class="cls-2" d="m523.71,85.58c0-2.67-.95-4.76-2.84-6.25-1.89-1.49-5.22-3.04-9.98-4.64-4.76-1.6-8.65-3.14-11.67-4.64-9.83-4.83-14.75-11.46-14.75-19.91,0-4.2,1.22-7.91,3.67-11.12s5.91-5.71,10.4-7.5c4.48-1.79,9.52-2.68,15.11-2.68s10.34.97,14.67,2.92c4.33,1.95,7.69,4.72,10.08,8.31,2.4,3.59,3.59,7.7,3.59,12.32h-18.24c0-3.09-.95-5.49-2.84-7.19-1.89-1.7-4.46-2.55-7.69-2.55s-5.85.72-7.74,2.16c-1.89,1.44-2.84,3.27-2.84,5.5,0,1.95,1.04,3.71,3.13,5.29,2.08,1.58,5.75,3.21,11,4.9,5.24,1.68,9.55,3.5,12.92,5.44,8.2,4.72,12.3,11.24,12.3,19.54,0,6.64-2.5,11.85-7.5,15.63-5,3.79-11.86,5.68-20.58,5.68-6.15,0-11.72-1.1-16.7-3.31s-8.74-5.23-11.25-9.07c-2.52-3.84-3.78-8.26-3.78-13.26h18.34c0,4.06,1.05,7.06,3.15,8.99,2.1,1.93,5.51,2.89,10.24,2.89,3.02,0,5.41-.65,7.17-1.95,1.75-1.3,2.63-3.13,2.63-5.5Z"/>
    <path class="cls-2" d="m576.2,105.74h-18.24V29.87h18.24v75.87Z"/>
    <path class="cls-2" d="m618.27,29.87l16.93,52.78,16.88-52.78h24.07v75.87h-18.34v-17.72l1.77-36.27-18.34,53.98h-12.09l-18.39-54.03,1.77,36.32v17.72h-18.29V29.87h24.02Z"/>
    <path class="cls-2" d="m757.36,69.37c0,7.4-1.37,13.95-4.12,19.64-2.74,5.7-6.64,10.08-11.7,13.16-5.05,3.07-10.81,4.61-17.27,4.61s-12.19-1.49-17.2-4.46-8.9-7.22-11.7-12.74c-2.8-5.52-4.26-11.86-4.4-19.02v-4.27c0-7.43,1.36-13.99,4.09-19.67,2.73-5.68,6.63-10.07,11.72-13.16,5.09-3.09,10.88-4.64,17.38-4.64s12.16,1.53,17.2,4.59c5.04,3.06,8.95,7.41,11.75,13.05,2.8,5.64,4.21,12.11,4.25,19.41v3.49Zm-18.6-3.18c0-7.54-1.26-13.26-3.78-17.17s-6.12-5.86-10.81-5.86c-9.17,0-14.02,6.88-14.54,20.63l-.05,5.58c0,7.43,1.23,13.15,3.7,17.14,2.47,4,6.13,5.99,11,5.99s8.18-1.96,10.68-5.89c2.5-3.92,3.77-9.57,3.8-16.93v-3.49Z"/>
    <path class="cls-2" d="m835.49,105.74h-18.18l-26.89-47.21v47.21h-18.29V29.87h18.29l26.83,47.21V29.87h18.24v75.87Z"/>
    <path class="cls-2" d="m902.59,80v25.74h-18.29V29.87h30.27c5.8,0,10.93,1.07,15.4,3.21,4.46,2.14,7.92,5.18,10.37,9.12,2.45,3.94,3.67,8.42,3.67,13.42,0,7.4-2.65,13.31-7.95,17.74-5.3,4.43-12.57,6.64-21.81,6.64h-11.67Zm0-14.12h11.99c3.54,0,6.24-.89,8.1-2.66,1.86-1.77,2.79-4.27,2.79-7.5,0-3.54-.96-6.37-2.87-8.49-1.91-2.12-4.52-3.2-7.82-3.23h-12.19v21.88Z"/>
    <path class="cls-2" d="m978.58,105.74h-18.24V29.87h18.24v75.87Z"/>
    <path class="cls-2" d="m1060.88,69.37c0,7.4-1.37,13.95-4.12,19.64-2.74,5.7-6.64,10.08-11.7,13.16-5.05,3.07-10.81,4.61-17.27,4.61s-12.19-1.49-17.2-4.46-8.9-7.22-11.7-12.74c-2.8-5.52-4.26-11.86-4.4-19.02v-4.27c0-7.43,1.36-13.99,4.09-19.67,2.73-5.68,6.63-10.07,11.72-13.16,5.09-3.09,10.88-4.64,17.38-4.64s12.16,1.53,17.2,4.59c5.04,3.06,8.95,7.41,11.75,13.05,2.8,5.64,4.21,12.11,4.25,19.41v3.49Zm-18.6-3.18c0-7.54-1.26-13.26-3.78-17.17s-6.12-5.86-10.81-5.86c-9.17,0-14.02,6.88-14.54,20.63l-.05,5.58c0,7.43,1.23,13.15,3.7,17.14,2.47,4,6.13,5.99,11,5.99s8.18-1.96,10.68-5.89c2.5-3.92,3.77-9.57,3.8-16.93v-3.49Z"/>
    <path class="cls-2" d="m1093.94,91.67h31.84v14.07h-50.13V29.87h18.29v61.8Z"/>
    <path class="cls-2" d="m1158.31,105.74h-18.24V29.87h18.24v75.87Z"/>
  </g>
  <g>
    <path class="cls-2" d="m508.35,172.8c0-1.8-.63-3.22-1.89-4.27-1.26-1.05-3.57-2.04-6.93-2.99-3.36-.94-5.81-1.97-7.35-3.09-2.2-1.57-3.3-3.64-3.3-6.19s1.02-4.5,3.06-6.05c2.04-1.55,4.65-2.33,7.83-2.33,2.15,0,4.08.42,5.78,1.25,1.7.83,3.02,1.99,3.96,3.48.94,1.49,1.4,3.14,1.4,4.97h-2.76c0-2.22-.76-4.01-2.27-5.35-1.52-1.35-3.55-2.02-6.11-2.02s-4.46.55-5.93,1.66c-1.47,1.11-2.21,2.55-2.21,4.34,0,1.65.66,3,1.98,4.04,1.32,1.04,3.44,1.96,6.35,2.76,2.91.8,5.12,1.62,6.62,2.47,1.5.86,2.63,1.88,3.39,3.06.76,1.19,1.14,2.59,1.14,4.21,0,2.55-1.02,4.61-3.06,6.15s-4.74,2.32-8.08,2.32c-2.29,0-4.39-.41-6.3-1.22s-3.36-1.96-4.34-3.43c-.99-1.47-1.48-3.16-1.48-5.06h2.74c0,2.29.85,4.09,2.56,5.41s3.98,1.98,6.82,1.98c2.53,0,4.55-.56,6.08-1.67,1.53-1.11,2.29-2.59,2.29-4.43Z"/>
    <path class="cls-2" d="m546.56,166.31c0,2.99-.52,5.61-1.55,7.87-1.03,2.26-2.51,4-4.42,5.21-1.92,1.22-4.13,1.83-6.64,1.83-3.79,0-6.85-1.36-9.18-4.07s-3.5-6.37-3.5-10.97v-3.34c0-2.96.52-5.57,1.57-7.86,1.05-2.28,2.53-4.03,4.45-5.26,1.92-1.23,4.12-1.84,6.62-1.84s4.7.6,6.61,1.81,3.38,2.9,4.42,5.1c1.04,2.2,1.58,4.75,1.63,7.64v3.88Zm-2.74-3.52c0-3.91-.88-6.97-2.65-9.18-1.77-2.21-4.19-3.32-7.26-3.32s-5.42,1.11-7.21,3.33c-1.79,2.22-2.69,5.32-2.69,9.3v3.39c0,3.85.89,6.9,2.67,9.15,1.78,2.25,4.2,3.38,7.26,3.38s5.53-1.11,7.26-3.33,2.61-5.31,2.61-9.28v-3.43Z"/>
    <path class="cls-2" d="m576.91,165.6h-15.13v15.18h-2.74v-32.45h20.1v2.32h-17.36v12.64h15.13v2.32Z"/>
    <path class="cls-2" d="m612.74,150.65h-11.12v30.13h-2.74v-30.13h-11.1v-2.32h24.96v2.32Z"/>
    <path class="cls-2" d="m629.87,172.02l1,5.04,1.23-4.81,7.04-23.91h2.47l6.95,23.91,1.2,4.86,1.07-5.08,5.86-23.69h2.81l-8.31,32.45h-2.63l-7.35-25.38-.82-3.21-.8,3.21-7.53,25.38h-2.63l-8.29-32.45h2.81l5.93,23.69Z"/>
    <path class="cls-2" d="m686.92,171.66h-14.73l-3.34,9.11h-2.87l12.28-32.45h2.61l12.28,32.45h-2.85l-3.37-9.11Zm-13.88-2.32h13.01l-6.51-17.67-6.51,17.67Z"/>
    <path class="cls-2" d="m715.6,167.25h-9.43v13.53h-2.76v-32.45h10.54c3.46,0,6.17.84,8.11,2.52,1.95,1.68,2.92,4.02,2.92,7.03,0,2.08-.61,3.91-1.83,5.5-1.22,1.59-2.85,2.69-4.9,3.29l8.11,13.82v.29h-2.92l-7.84-13.53Zm-9.43-2.32h8.4c2.3,0,4.15-.65,5.55-1.96,1.4-1.31,2.09-3.01,2.09-5.09,0-2.29-.73-4.07-2.18-5.33-1.46-1.27-3.5-1.9-6.13-1.9h-7.73v14.29Z"/>
    <path class="cls-2" d="m755.93,165.22h-15.18v13.24h17.45v2.32h-20.19v-32.45h20.08v2.32h-17.34v12.26h15.18v2.32Z"/>
    <path class="cls-2" d="m786.21,180.78v-32.45h9.07c2.66,0,5.04.61,7.15,1.82s3.75,2.95,4.94,5.2c1.18,2.26,1.77,4.83,1.77,7.71v2.98c0,2.9-.59,5.47-1.76,7.71-1.17,2.24-2.83,3.97-4.96,5.19-2.13,1.22-4.58,1.83-7.34,1.83h-8.87Zm2.74-30.13v27.81h6.15c3.42,0,6.16-1.13,8.22-3.4s3.1-5.33,3.1-9.2v-2.86c0-3.73-1.02-6.72-3.05-8.96-2.04-2.25-4.72-3.38-8.04-3.39h-6.37Z"/>
    <path class="cls-2" d="m839.58,165.22h-15.18v13.24h17.45v2.32h-20.19v-32.45h20.08v2.32h-17.34v12.26h15.18v2.32Z"/>
    <path class="cls-2" d="m862.97,176.76l.18.69.2-.69,10.21-28.43h3.01l-12.08,32.45h-2.63l-12.08-32.45h2.99l10.21,28.43Z"/>
    <path class="cls-2" d="m904.82,165.22h-15.18v13.24h17.45v2.32h-20.19v-32.45h20.08v2.32h-17.34v12.26h15.18v2.32Z"/>
    <path class="cls-2" d="m921.19,178.46h16.02v2.32h-18.79v-32.45h2.76v30.13Z"/>
    <path class="cls-2" d="m970.57,166.31c0,2.99-.52,5.61-1.55,7.87-1.03,2.26-2.51,4-4.42,5.21-1.92,1.22-4.13,1.83-6.64,1.83-3.79,0-6.85-1.36-9.18-4.07s-3.5-6.37-3.5-10.97v-3.34c0-2.96.52-5.57,1.57-7.86,1.05-2.28,2.53-4.03,4.45-5.26,1.92-1.23,4.12-1.84,6.62-1.84s4.7.6,6.61,1.81,3.38,2.9,4.42,5.1c1.04,2.2,1.58,4.75,1.63,7.64v3.88Zm-2.74-3.52c0-3.91-.88-6.97-2.65-9.18-1.77-2.21-4.19-3.32-7.26-3.32s-5.42,1.11-7.21,3.33c-1.79,2.22-2.69,5.32-2.69,9.3v3.39c0,3.85.89,6.9,2.67,9.15,1.78,2.25,4.2,3.38,7.26,3.38s5.53-1.11,7.26-3.33,2.61-5.31,2.61-9.28v-3.43Z"/>
    <path class="cls-2" d="m985.79,167.56v13.21h-2.74v-32.45h11.05c3.37,0,6.04.86,7.99,2.58,1.95,1.72,2.93,4.09,2.93,7.11s-.94,5.4-2.82,7.05c-1.88,1.66-4.6,2.48-8.17,2.48h-8.25Zm0-2.32h8.31c2.66,0,4.69-.63,6.08-1.9,1.4-1.26,2.09-3.03,2.09-5.29s-.69-4.04-2.08-5.37c-1.39-1.33-3.36-2.01-5.92-2.04h-8.49v14.6Z"/>
    <path class="cls-2" d="m1020.35,148.33l11.97,28.63,12.01-28.63h3.66v32.45h-2.74v-14.13l.22-14.48-12.08,28.61h-2.12l-12.03-28.5.22,14.29v14.22h-2.74v-32.45h3.63Z"/>
    <path class="cls-2" d="m1079.69,165.22h-15.18v13.24h17.45v2.32h-20.19v-32.45h20.08v2.32h-17.34v12.26h15.18v2.32Z"/>
    <path class="cls-2" d="m1117.46,180.78h-2.74l-18.65-27.77v27.77h-2.76v-32.45h2.76l18.67,27.79v-27.79h2.72v32.45Z"/>
    <path class="cls-2" d="m1152.65,150.65h-11.12v30.13h-2.74v-30.13h-11.1v-2.32h24.96v2.32Z"/>
  </g>
  <rect class="cls-2" x="463.22" y="125.34" width="714.04" height="5"/>
</svg>